<svg width="220" height="56" viewBox="0 0 220 56" fill="none" xmlns="http://www.w3.org/2000/svg">
<path d="M46.3698 22.3075C46.3698 24.9325 44.8698 26.2375 43.5423 26.2375C42.9926 26.208 42.4669 26.003 42.0423 25.6525C41.5947 25.2648 41.0504 25.0056 40.4673 24.9025C40.3419 24.8947 40.2169 24.9234 40.1073 24.985V32.1325C40.1073 32.41 40.1598 32.4625 40.4373 32.4925L42.2148 32.6875C42.3798 32.6875 42.4323 32.8 42.4323 33.295C42.4323 33.79 42.3798 33.88 42.2148 33.88C41.5773 33.88 39.7773 33.685 36.9198 33.685C34.9023 33.685 33.0723 33.88 32.4198 33.88C32.2548 33.88 32.2023 33.82 32.2023 33.295C32.2023 32.77 32.2548 32.7175 32.4198 32.6875L33.3573 32.5C33.6348 32.4475 33.6873 32.4175 33.6873 32.14V24.85C33.6873 24.5725 33.6348 24.55 33.3573 24.49L32.4123 24.325C32.2473 24.325 32.1948 24.2425 32.1948 23.8C32.1948 23.3575 32.2473 23.3275 32.4123 23.275C34.7772 22.28 37.0092 20.9952 39.0573 19.45C39.1221 19.4 39.2006 19.3712 39.2823 19.3675C39.4773 19.3675 40.0323 19.5925 40.0323 19.7875C40.0323 20.23 39.9198 22.4725 39.9198 24.2875C40.7523 21.6025 42.3048 19.5475 43.9923 19.5475C45.6798 19.5475 46.3698 20.785 46.3698 22.3075Z" fill="#3AD6C7"/>
<path d="M53.2701 25.1875C53.6406 26.4824 54.3025 27.6753 55.2051 28.675C55.5422 29.0917 55.9686 29.4273 56.4528 29.6571C56.937 29.8869 57.4666 30.0049 58.0026 30.0025C59.0108 29.9885 59.9739 29.5822 60.6876 28.87C60.9351 28.645 61.6326 29.17 61.5201 29.4475C60.8886 30.8442 59.8696 32.0304 58.5841 32.8653C57.2985 33.7002 55.8004 34.1487 54.2676 34.1575C50.1351 34.1575 46.9551 31.33 46.9551 26.9575C46.9551 22.585 50.3076 19.5325 55.2051 19.5325C59.3301 19.5325 61.5726 21.5275 61.5726 24.19C61.5856 24.4412 61.568 24.6931 61.5201 24.94C61.4973 25.0017 61.4549 25.0543 61.3993 25.0895C61.3437 25.1247 61.2781 25.1407 61.2126 25.135C59.0526 25.21 55.8951 25.27 53.2701 25.1875ZM55.8426 22C55.8426 20.95 55.4001 20.395 54.6276 20.395C53.8551 20.395 52.9101 21.145 52.9101 22.8325C52.9217 23.4169 52.9845 23.9991 53.0976 24.5725L53.9901 24.4675C55.2501 24.325 55.8426 23.41 55.8426 22Z" fill="#3AD6C7"/>
<path d="M63.71 28.5926C64.235 28.5926 64.3175 28.6451 64.4 28.8701C64.8237 29.9839 65.3249 31.0665 65.9 32.1101C66.0801 32.4539 66.3577 32.7369 66.6978 32.9236C67.038 33.1104 67.4258 33.1927 67.8125 33.1601C69.0275 33.1601 69.7475 32.5526 69.7475 31.5251C69.7475 30.4976 69.2225 29.8676 67.2575 29.2751C63.875 28.2776 63.05 26.7251 63.05 24.3476C63.05 21.6026 65.51 19.3901 70.025 19.3901C71.0542 19.4076 72.0812 19.4902 73.1 19.6376C73.655 19.7201 73.7075 19.7801 73.7075 20.3276V23.6276C73.7075 23.8451 73.655 23.9051 73.1225 23.9051C72.59 23.9051 72.515 23.8451 72.4325 23.6276L71.5775 21.4376C71.457 21.1018 71.2277 20.816 70.9259 20.6257C70.6242 20.4354 70.2674 20.3516 69.9125 20.3876C68.975 20.3876 68.255 20.7776 68.255 21.7976C68.255 22.8176 68.6975 23.1851 70.55 23.8451C73.6775 24.9551 74.675 26.5901 74.675 28.6901C74.675 31.9301 72.1325 34.1501 67.7 34.1501C66.2622 34.1699 64.8308 33.9545 63.4625 33.5126C62.9075 33.3476 62.855 33.2876 62.855 32.7626C62.855 31.7351 62.99 30.1526 63.1325 28.8851C63.125 28.6451 63.2075 28.5926 63.71 28.5926Z" fill="#3AD6C7"/>
<path d="M83.0374 34.1575C78.9124 34.1575 75.9199 31.2775 75.9199 26.9575C75.9199 22.6375 79.5499 19.5325 84.4474 19.5325C87.9649 19.5325 89.9299 21.3925 89.9299 23.215C89.9297 23.4796 89.8748 23.7414 89.7686 23.9838C89.6624 24.2262 89.5072 24.444 89.3129 24.6236C89.1185 24.8032 88.8891 24.9407 88.639 25.0274C88.389 25.1141 88.1238 25.1482 87.8599 25.1275C86.6074 25.1275 85.6999 24.3775 84.8599 22.8325C83.8324 20.89 83.4424 20.5825 82.8349 20.5825C82.2274 20.5825 81.8374 20.995 81.8374 22.0825C81.9307 24.7813 82.9594 27.3638 84.7474 29.3875C85.0148 29.7277 85.3567 30.0019 85.7468 30.1892C86.1369 30.3764 86.5648 30.4716 86.9974 30.4675C87.3992 30.4571 87.7947 30.3661 88.1606 30.1999C88.5265 30.0337 88.8553 29.7957 89.1274 29.5C89.3824 29.305 90.0724 29.8075 89.9599 30.085C89.1049 32.1925 86.4724 34.1575 83.0374 34.1575Z" fill="#3AD6C7"/>
<path d="M109.625 32.11C109.625 32.575 109.565 32.635 109.4 32.6575C107.743 32.995 105.523 33.52 103.445 34.1575C103.228 34.21 102.56 34.045 102.478 33.7675C102.213 32.7838 102.028 31.7806 101.923 30.7675C101.512 31.7509 100.827 32.595 99.9489 33.1989C99.071 33.8028 98.0376 34.1409 96.9725 34.1725C94.0625 34.1725 92.2625 32.3125 92.2625 29.3275V21.5275C92.2625 21.25 92.2025 21.1975 91.9325 21.145L90.9875 20.92C90.8225 20.92 90.77 20.8075 90.77 20.335C90.77 19.8625 90.8525 19.705 91.0175 19.705C93.455 19.645 98.27 19.5925 98.465 19.5925C98.5705 19.6039 98.669 19.651 98.744 19.726C98.819 19.8011 98.8661 19.8995 98.8775 20.005C98.8775 20.4775 98.66 22.0525 98.66 25.465V26.8975C98.66 29.4775 99.2675 30.3925 101.12 30.3925C101.328 30.3945 101.535 30.3667 101.735 30.31V21.5275C101.735 21.25 101.675 21.1975 101.398 21.145L100.46 20.92C100.295 20.92 100.235 20.8075 100.235 20.335C100.235 19.8625 100.318 19.705 100.483 19.705C102.92 19.645 107.743 19.5925 107.938 19.5925C108.043 19.6052 108.14 19.6527 108.215 19.7275C108.29 19.8023 108.337 19.9 108.35 20.005C108.35 20.4775 108.125 22.0525 108.125 25.465V30.9175C108.125 31.195 108.185 31.2475 108.463 31.3075L109.4 31.525C109.565 31.555 109.625 31.6375 109.625 32.11Z" fill="#3AD6C7"/>
<path d="M117.02 25.1875C117.391 26.4824 118.052 27.6753 118.955 28.675C119.293 29.0909 119.719 29.4259 120.203 29.6556C120.688 29.8853 121.217 30.0038 121.753 30.0025C122.763 29.9896 123.729 29.5834 124.445 28.87C124.693 28.645 125.383 29.17 125.27 29.4475C124.639 30.8448 123.621 32.0315 122.335 32.8665C121.049 33.7015 119.551 34.1496 118.018 34.1575C113.893 34.1575 110.705 31.33 110.705 26.9575C110.705 22.585 114.058 19.5325 118.955 19.5325C123.08 19.5325 125.323 21.5275 125.323 24.19C125.336 24.4412 125.318 24.6931 125.27 24.94C125.247 25.0017 125.205 25.0543 125.149 25.0895C125.094 25.1247 125.028 25.1407 124.963 25.135C122.81 25.21 119.653 25.27 117.02 25.1875ZM119.593 22C119.593 20.95 119.15 20.395 118.378 20.395C117.605 20.395 116.66 21.145 116.66 22.8325C116.671 23.4173 116.736 23.9999 116.855 24.5725L117.74 24.4675C119 24.325 119.593 23.41 119.593 22Z" fill="#3AD6C7"/>
<path d="M127.46 28.5926C127.985 28.5926 128.067 28.6451 128.15 28.8701C128.574 29.9839 129.075 31.0665 129.65 32.1101C129.83 32.4539 130.108 32.7369 130.448 32.9236C130.788 33.1104 131.176 33.1927 131.562 33.1601C132.777 33.1601 133.497 32.5526 133.497 31.5251C133.497 30.4976 132.972 29.8676 131.007 29.2751C127.632 28.2776 126.8 26.7251 126.8 24.3476C126.8 21.6026 129.267 19.3901 133.775 19.3901C134.804 19.4076 135.831 19.4902 136.85 19.6376C137.405 19.7201 137.457 19.7801 137.457 20.3276V23.6276C137.457 23.8451 137.405 23.9051 136.88 23.9051C136.355 23.9051 136.272 23.8451 136.19 23.6276L135.327 21.4376C135.207 21.1032 134.979 20.8184 134.679 20.6282C134.379 20.438 134.024 20.3534 133.67 20.3876C132.725 20.3876 132.005 20.7776 132.005 21.7976C132.005 22.8176 132.447 23.1851 134.3 23.8451C137.435 24.9551 138.432 26.5901 138.432 28.6901C138.432 31.9301 135.882 34.1501 131.45 34.1501C130.012 34.1699 128.581 33.9545 127.212 33.5126C126.657 33.3476 126.605 33.2876 126.605 32.7626C126.605 31.7351 126.747 30.1526 126.882 28.8851C126.882 28.6451 126.965 28.5926 127.46 28.5926Z" fill="#1D1D1B"/>
<path d="M157.31 26.4549C157.31 31.2774 154.49 34.0449 149.922 34.0449C149.007 34.0564 148.093 33.9454 147.207 33.7149V38.1699C147.207 38.4474 147.26 38.4999 147.537 38.5599L148.482 38.7549C148.647 38.7549 148.7 38.8374 148.7 39.3624C148.7 39.8874 148.647 39.9399 148.482 39.9399C147.845 39.9399 146.045 39.7524 144.02 39.7524C141.995 39.7524 140.172 39.9399 139.52 39.9399C139.355 39.9399 139.302 39.8574 139.302 39.3624C139.302 38.8674 139.355 38.7774 139.52 38.7549L140.465 38.5599C140.742 38.4999 140.795 38.4474 140.795 38.1699V24.8499C140.795 24.5724 140.742 24.5499 140.465 24.4899L139.52 24.3249C139.355 24.3249 139.302 24.2424 139.302 23.7999C139.302 23.3574 139.355 23.3274 139.52 23.2749C141.885 22.28 144.117 20.9951 146.165 19.4499C146.229 19.3999 146.308 19.3711 146.39 19.3674C146.585 19.3674 147.14 19.5924 147.14 19.7874C147.14 20.2524 147.027 20.9199 147.027 22.6674C147.363 21.7362 147.982 20.9334 148.797 20.3713C149.612 19.8091 150.582 19.5159 151.572 19.5324C154.437 19.5324 157.31 21.8649 157.31 26.4549ZM151.197 31.6374C151.197 28.9224 149.697 24.7374 148.197 23.2449C148.117 23.1443 148.016 23.0626 147.9 23.0056C147.785 22.9486 147.658 22.9176 147.53 22.9149C147.41 22.9143 147.294 22.954 147.2 23.0274V26.5974C147.2 29.2299 148.31 31.7724 149.247 32.7174C149.366 32.8573 149.515 32.9694 149.682 33.0458C149.849 33.1222 150.031 33.1612 150.215 33.1599C150.807 33.1599 151.197 32.6349 151.197 31.6374Z" fill="#1D1D1B"/>
<path d="M167.398 19.5325C172.213 19.5325 175.535 22.2475 175.535 26.7325C175.535 31.4425 171.965 34.1575 166.843 34.1575C162.02 34.1575 158.698 31.4425 158.698 26.9575C158.698 22.2475 162.275 19.5325 167.398 19.5325ZM167.615 32.7175C167.721 32.8442 167.853 32.9466 168.002 33.0178C168.15 33.089 168.313 33.1273 168.478 33.13C169.033 33.13 169.498 32.77 169.498 31.3075C169.498 28.3975 167.81 22.165 166.618 20.9725C166.514 20.8456 166.384 20.7429 166.236 20.6716C166.088 20.6004 165.927 20.5623 165.763 20.56C165.208 20.56 164.735 20.92 164.735 22.39C164.75 25.2925 166.43 31.525 167.615 32.7175Z" fill="#1D1D1B"/>
<path d="M184.01 21.415V26.8975C184.01 29.4775 184.707 30.115 185.892 30.115C186.13 30.0858 186.364 30.0304 186.59 29.95C186.89 29.95 187.34 30.3925 187.25 30.7C186.819 31.7273 186.097 32.6055 185.171 33.2255C184.246 33.8455 183.159 34.18 182.045 34.1875C179.142 34.1875 177.62 32.3275 177.62 29.3425V21.7225C177.62 21.445 177.62 21.415 177.282 21.3625L176.285 21.25C176.09 21.25 176.067 21.1675 176.067 20.695C176.067 20.2225 176.12 20.11 176.285 20.0875C178.713 19.6273 180.921 18.3806 182.57 16.54C182.742 16.375 182.765 16.315 183.207 16.315C183.65 16.315 183.732 16.315 183.762 16.54C183.893 17.6154 183.969 18.6968 183.987 19.78H187.115C187.392 19.78 187.505 19.9225 187.505 20.665C187.505 21.4075 187.392 21.4975 187.115 21.4975C186.147 21.445 184.955 21.445 184.01 21.415Z" fill="#1D1D1B"/>
</svg>
