<svg width="17" height="16" viewBox="0 0 17 16" fill="none" xmlns="http://www.w3.org/2000/svg">
<path fill-rule="evenodd" clip-rule="evenodd" d="M1 1V15C1 15.2761 1.22386 15.5 1.5 15.5H10C10.2761 15.5 10.5 15.2761 10.5 15V11.5C10.5 11.2239 10.2761 11 10 11C9.72386 11 9.5 11.2239 9.5 11.5V14.5H2V1.5H9.5V4.5C9.5 4.77614 9.72386 5 10 5C10.2761 5 10.5 4.77614 10.5 4.5V1C10.5 0.723858 10.2761 0.5 10 0.5H1.5C1.22386 0.5 1 0.723858 1 1ZM13.645 9.64476C13.5023 9.76696 13.4402 9.95882 13.4841 10.1415C13.528 10.3241 13.6706 10.4667 13.8533 10.5107C14.0359 10.5546 14.2278 10.4924 14.35 10.3498L16.35 8.34976C16.4447 8.25588 16.4979 8.12808 16.4979 7.99476C16.4979 7.86144 16.4447 7.73364 16.35 7.63976L14.35 5.63976C14.1516 5.46987 13.8559 5.4813 13.6712 5.66598C13.4865 5.85066 13.4751 6.14638 13.645 6.34476L14.795 7.49976H7.5C7.22386 7.49976 7 7.72362 7 7.99976C7 8.2759 7.22386 8.49976 7.5 8.49976H14.795L13.645 9.64476Z" fill="#1D1D1B"/>
<path d="M9.5 14.5V14.75H9.75V14.5H9.5ZM2 14.5H1.75V14.75H2V14.5ZM2 1.5V1.25H1.75V1.5H2ZM9.5 1.5H9.75V1.25H9.5V1.5ZM13.645 9.64476L13.8076 9.83465L13.8147 9.82854L13.8214 9.82192L13.645 9.64476ZM14.35 10.3498L14.1732 10.173L14.1664 10.1798L14.1601 10.1871L14.35 10.3498ZM16.35 8.34976L16.1739 8.17226L16.1732 8.17298L16.35 8.34976ZM16.35 7.63976L16.1732 7.81654L16.174 7.81726L16.35 7.63976ZM14.35 5.63976L14.5268 5.46298L14.5199 5.45616L14.5126 5.44988L14.35 5.63976ZM13.645 6.34476L13.4551 6.50738L13.4612 6.5145L13.4678 6.52115L13.645 6.34476ZM14.795 7.49976V7.74976H15.3967L14.9722 7.32337L14.795 7.49976ZM14.795 8.49976L14.9714 8.67692L15.4004 8.24976H14.795V8.49976ZM0.75 1V15H1.25V1H0.75ZM0.75 15C0.75 15.4142 1.08579 15.75 1.5 15.75V15.25C1.36193 15.25 1.25 15.1381 1.25 15H0.75ZM1.5 15.75H10V15.25H1.5V15.75ZM10 15.75C10.4142 15.75 10.75 15.4142 10.75 15H10.25C10.25 15.1381 10.1381 15.25 10 15.25V15.75ZM10.75 15V11.5H10.25V15H10.75ZM10.75 11.5C10.75 11.0858 10.4142 10.75 10 10.75V11.25C10.1381 11.25 10.25 11.3619 10.25 11.5H10.75ZM10 10.75C9.58579 10.75 9.25 11.0858 9.25 11.5H9.75C9.75 11.3619 9.86193 11.25 10 11.25V10.75ZM9.25 11.5V14.5H9.75V11.5H9.25ZM9.5 14.25H2V14.75H9.5V14.25ZM2.25 14.5V1.5H1.75V14.5H2.25ZM2 1.75H9.5V1.25H2V1.75ZM9.25 1.5V4.5H9.75V1.5H9.25ZM9.25 4.5C9.25 4.91421 9.58579 5.25 10 5.25V4.75C9.86193 4.75 9.75 4.63807 9.75 4.5H9.25ZM10 5.25C10.4142 5.25 10.75 4.91421 10.75 4.5H10.25C10.25 4.63807 10.1381 4.75 10 4.75V5.25ZM10.75 4.5V1H10.25V4.5H10.75ZM10.75 1C10.75 0.585786 10.4142 0.25 10 0.25V0.75C10.1381 0.75 10.25 0.861929 10.25 1H10.75ZM10 0.25H1.5V0.75H10V0.25ZM1.5 0.25C1.08579 0.25 0.75 0.585786 0.75 1H1.25C1.25 0.861929 1.36193 0.75 1.5 0.75V0.25ZM13.4824 9.45488C13.2684 9.63817 13.1751 9.92596 13.241 10.1999L13.7272 10.083C13.7052 9.99168 13.7363 9.89575 13.8076 9.83465L13.4824 9.45488ZM13.241 10.1999C13.3069 10.4739 13.5208 10.6878 13.7948 10.7537L13.9118 10.2676C13.8204 10.2456 13.7491 10.1743 13.7272 10.083L13.241 10.1999ZM13.7948 10.7537C14.0688 10.8196 14.3566 10.7264 14.5399 10.5124L14.1601 10.1871C14.099 10.2585 14.0031 10.2896 13.9118 10.2676L13.7948 10.7537ZM14.5268 10.5265L16.5268 8.52654L16.1732 8.17298L14.1732 10.173L14.5268 10.5265ZM16.5261 8.52726C16.668 8.38644 16.7479 8.19474 16.7479 7.99476H16.2479C16.2479 8.06142 16.2213 8.12532 16.174 8.17226L16.5261 8.52726ZM16.7479 7.99476C16.7479 7.79478 16.668 7.60309 16.5261 7.46226L16.174 7.81726C16.2213 7.8642 16.2479 7.9281 16.2479 7.99476H16.7479ZM16.5268 7.46298L14.5268 5.46298L14.1732 5.81654L16.1732 7.81654L16.5268 7.46298ZM14.5126 5.44988C14.215 5.19504 13.7715 5.21218 13.4944 5.4892L13.848 5.84276C13.9403 5.75041 14.0882 5.7447 14.1874 5.82965L14.5126 5.44988ZM13.4944 5.4892C13.2174 5.76623 13.2003 6.20981 13.4551 6.50738L13.8349 6.18215C13.7499 6.08296 13.7557 5.9351 13.848 5.84276L13.4944 5.4892ZM13.4678 6.52115L14.6178 7.67615L14.9722 7.32337L13.8222 6.16837L13.4678 6.52115ZM14.795 7.24976H7.5V7.74976H14.795V7.24976ZM7.5 7.24976C7.08579 7.24976 6.75 7.58555 6.75 7.99976H7.25C7.25 7.86169 7.36193 7.74976 7.5 7.74976V7.24976ZM6.75 7.99976C6.75 8.41397 7.08579 8.74976 7.5 8.74976V8.24976C7.36193 8.24976 7.25 8.13783 7.25 7.99976H6.75ZM7.5 8.74976H14.795V8.24976H7.5V8.74976ZM14.6186 8.3226L13.4686 9.4676L13.8214 9.82192L14.9714 8.67692L14.6186 8.3226Z" fill="#1D1D1B"/>
</svg>
