<svg width="48" height="48" viewBox="0 0 48 48" fill="none" xmlns="http://www.w3.org/2000/svg">
<rect x="0.75" y="0.75" width="46.5" height="46.5" rx="23.25" fill="#9AE2D9"/>
<path d="M18.9612 20.28L20.1292 18.856C19.0412 18.04 17.9052 17.608 16.5132 17.608C14.6732 17.608 12.9772 18.6 12.9772 20.728C12.9772 22.664 14.5612 23.4 16.0652 23.944C17.2332 24.36 18.3692 24.76 18.3692 25.832C18.3692 27 17.3772 27.48 16.3852 27.48C15.2332 27.48 14.4972 27.048 13.5212 26.104L12.1772 27.4C13.3932 28.6 14.6732 29.192 16.3692 29.192C18.2252 29.192 20.4652 28.184 20.4652 25.72C20.4652 23.464 18.6092 22.728 16.9612 22.168C16.0652 21.864 14.9612 21.512 14.9612 20.632C14.9612 19.784 15.6972 19.32 16.6252 19.32C17.4892 19.32 18.3852 19.768 18.9612 20.28ZM33.1131 20.296V29H35.0971V17.8H32.1371L28.8891 26.008L25.7211 17.8H22.7291V29H24.7131V20.264L28.1691 29H29.5771L33.1131 20.296Z" fill="#1D1D1B"/>
<rect x="0.75" y="0.75" width="46.5" height="46.5" rx="23.25" stroke="#1D1D1B" stroke-width="1.5"/>
</svg>
